<svg xmlns="http://www.w3.org/2000/svg" viewBox="0 0 32 32">
  <!-- Background -->
  <rect width="32" height="32" fill="#1a1a2e" rx="6"/>
  
  <!-- S3 Design -->
  <g transform="translate(6, 8)">
    <!-- S -->
    <path d="M 2 2 Q 2 0 4 0 L 8 0 Q 10 0 10 2 Q 10 4 8 4 L 4 4 Q 2 4 2 6 Q 2 8 4 8 L 8 8 Q 10 8 10 10" 
          stroke="#00D9FF" stroke-width="2" fill="none" stroke-linecap="round"/>
    
    <!-- 3 -->
    <path d="M 12 0 L 18 0 Q 20 0 20 2 Q 20 4 18 4 L 14 4 L 18 4 Q 20 4 20 6 Q 20 8 18 8 L 12 8" 
          stroke="#00D9FF" stroke-width="2" fill="none" stroke-linecap="round"/>
  </g>
  
  <!-- Accent dot -->
  <circle cx="26" cy="26" r="2" fill="#00D9FF"/>
</svg>
